<svg version="1.1" xmlns="http://www.w3.org/2000/svg" xmlns:xlink="http://www.w3.org/1999/xlink" width="1276" height="580"><defs><clipPath id="XhMALQJVdoDr"><path fill="none" stroke="none" d=" M 0 0 L 1276 0 L 1276 580 L 0 580 L 0 0 Z"/></clipPath></defs><g transform="scale(1,1)" clip-path="url(#XhMALQJVdoDr)"><g><rect fill="rgb(255,255,255)" stroke="none" x="0" y="0" width="1277" height="580" fill-opacity="1"/><path fill="none" stroke="rgb(0,0,0)" paint-order="fill stroke markers" d=" M 613.7229920681582 309.60093464379634 C 613.7229920681582 334.62226358674513 593.439197249108 354.9060584057955 568.4178683061592 354.9060584057955 C 543.3965393632105 354.9060584057955 523.1127445441603 334.62226358674513 523.1127445441603 309.60093464379634 C 523.1127445441603 284.5796057008475 543.3965393632105 264.29581088179714 568.4178683061592 264.29581088179714 C 593.439197249108 264.29581088179714 613.7229920681582 284.5796057008475 613.7229920681582 309.60093464379634 Z" stroke-opacity="0.6980392156862745" stroke-linecap="round" stroke-linejoin="round" stroke-miterlimit="10" stroke-width="2.5"/><path fill="none" stroke="rgb(0,0,0)" paint-order="fill stroke markers" d=" M 724.8649365648475 202.35248437397468 C 724.8649365648475 286.6430877638864 656.5339015413572 354.97412278737704 572.2432981514457 354.97412278737704 C 487.9526947615343 354.97412278737704 419.62165973804395 286.6430877638864 419.62165973804395 202.35248437397468 C 419.62165973804395 118.06188098406294 487.9526947615343 49.73084596057228 572.2432981514457 49.73084596057228 C 656.5339015413572 49.73084596057228 724.8649365648475 118.06188098406294 724.8649365648475 202.35248437397468 Z" stroke-opacity="0.6980392156862745" stroke-linecap="round" stroke-linejoin="round" stroke-miterlimit="10" stroke-width="2.5"/><path fill="none" stroke="rgb(0,0,0)" paint-order="fill stroke markers" d=" M 568.4178683061592 309.60093464379634 L 613.7225485677029 309.40047145679836" stroke-opacity="0.6980392156862745" stroke-linecap="round" stroke-linejoin="round" stroke-miterlimit="10" stroke-width="2.5"/><path fill="none" stroke="rgb(0,0,0)" paint-order="fill stroke markers" d=" M 568.4178683061592 309.60093464379634 L 663.2104656789797 259.2896289352989" stroke-opacity="0.6980392156862745" stroke-linecap="round" stroke-linejoin="round" stroke-miterlimit="10" stroke-width="2.5"/><path fill="none" stroke="rgb(0,0,0)" paint-order="fill stroke markers" d=" M 568.4178683061592 309.60093464379634 L 572.2432981514457 202.35248437397468" stroke-opacity="0.6980392156862745" stroke-linecap="round" stroke-linejoin="round" stroke-miterlimit="10" stroke-width="2.5"/><path fill="none" stroke="rgb(0,0,0)" paint-order="fill stroke markers" d=" M 572.2432981514457 202.35248437397468 L 663.2104656789797 259.2896289352989" stroke-opacity="0.6980392156862745" stroke-linecap="round" stroke-linejoin="round" stroke-miterlimit="10" stroke-width="2.5"/><path fill="none" stroke="rgb(0,0,0)" paint-order="fill stroke markers" d=" M 572.2432981514457 202.35248437397468 L 562.1754301783716 491.71637550884907" stroke-opacity="0.6980392156862745" stroke-linecap="round" stroke-linejoin="round" stroke-miterlimit="10" stroke-width="2.5"/><path fill="none" stroke="rgb(0,0,0)" paint-order="fill stroke markers" d=" M 572.2432981514457 202.35248437397468 L 867.2588013105535 387.91582024198243" stroke-opacity="0.6980392156862745" stroke-linecap="round" stroke-linejoin="round" stroke-miterlimit="10" stroke-width="2.5"/><path fill="rgb(77,77,255)" stroke="none" paint-order="stroke fill markers" d=" M 573.4178683061592 309.60093464379634 C 573.4178683061592 312.3623583929503 571.1792920553132 314.60093464379634 568.4178683061592 314.60093464379634 C 565.6564445570052 314.60093464379634 563.4178683061592 312.3623583929503 563.4178683061592 309.60093464379634 C 563.4178683061592 306.8395108946424 565.6564445570052 304.60093464379634 568.4178683061592 304.60093464379634 C 571.1792920553132 304.60093464379634 573.4178683061592 306.8395108946424 573.4178683061592 309.60093464379634 Z" fill-opacity="1"/><path fill="none" stroke="rgb(0,0,0)" paint-order="fill stroke markers" d=" M 573.4178683061592 309.60093464379634 C 573.4178683061592 312.3623583929503 571.1792920553132 314.60093464379634 568.4178683061592 314.60093464379634 C 565.6564445570052 314.60093464379634 563.4178683061592 312.3623583929503 563.4178683061592 309.60093464379634 C 563.4178683061592 306.8395108946424 565.6564445570052 304.60093464379634 568.4178683061592 304.60093464379634 C 571.1792920553132 304.60093464379634 573.4178683061592 306.8395108946424 573.4178683061592 309.60093464379634 Z" stroke-opacity="1" stroke-linecap="round" stroke-linejoin="round" stroke-miterlimit="10"/><text fill="rgb(77,77,255)" stroke="none" font-family="geogebra-sans-serif, sans-serif" font-size="16px" font-style="normal" font-weight="normal" text-decoration="normal" x="572" y="300" text-anchor="start" dominant-baseline="alphabetic" fill-opacity="1">A</text><path fill="rgb(77,77,255)" stroke="none" paint-order="stroke fill markers" d=" M 618.7225485677029 309.40047145679836 C 618.7225485677029 312.1618952059523 616.4839723168569 314.40047145679836 613.7225485677029 314.40047145679836 C 610.9611248185489 314.40047145679836 608.7225485677029 312.1618952059523 608.7225485677029 309.40047145679836 C 608.7225485677029 306.6390477076444 610.9611248185489 304.40047145679836 613.7225485677029 304.40047145679836 C 616.4839723168569 304.40047145679836 618.7225485677029 306.6390477076444 618.7225485677029 309.40047145679836 Z" fill-opacity="1"/><path fill="none" stroke="rgb(0,0,0)" paint-order="fill stroke markers" d=" M 618.7225485677029 309.40047145679836 C 618.7225485677029 312.1618952059523 616.4839723168569 314.40047145679836 613.7225485677029 314.40047145679836 C 610.9611248185489 314.40047145679836 608.7225485677029 312.1618952059523 608.7225485677029 309.40047145679836 C 608.7225485677029 306.6390477076444 610.9611248185489 304.40047145679836 613.7225485677029 304.40047145679836 C 616.4839723168569 304.40047145679836 618.7225485677029 306.6390477076444 618.7225485677029 309.40047145679836 Z" stroke-opacity="1" stroke-linecap="round" stroke-linejoin="round" stroke-miterlimit="10"/><text fill="rgb(77,77,255)" stroke="none" font-family="geogebra-sans-serif, sans-serif" font-size="16px" font-style="normal" font-weight="normal" text-decoration="normal" x="618" y="299" text-anchor="start" dominant-baseline="alphabetic" fill-opacity="1">B</text><path fill="rgb(77,77,255)" stroke="none" paint-order="stroke fill markers" d=" M 668.2104656789797 259.2896289352989 C 668.2104656789797 262.0510526844528 665.9718894281337 264.2896289352989 663.2104656789797 264.2896289352989 C 660.4490419298257 264.2896289352989 658.2104656789797 262.0510526844528 658.2104656789797 259.2896289352989 C 658.2104656789797 256.52820518614493 660.4490419298257 254.28962893529888 663.2104656789797 254.28962893529888 C 665.9718894281337 254.28962893529888 668.2104656789797 256.52820518614493 668.2104656789797 259.2896289352989 Z" fill-opacity="1"/><path fill="none" stroke="rgb(0,0,0)" paint-order="fill stroke markers" d=" M 668.2104656789797 259.2896289352989 C 668.2104656789797 262.0510526844528 665.9718894281337 264.2896289352989 663.2104656789797 264.2896289352989 C 660.4490419298257 264.2896289352989 658.2104656789797 262.0510526844528 658.2104656789797 259.2896289352989 C 658.2104656789797 256.52820518614493 660.4490419298257 254.28962893529888 663.2104656789797 254.28962893529888 C 665.9718894281337 254.28962893529888 668.2104656789797 256.52820518614493 668.2104656789797 259.2896289352989 Z" stroke-opacity="1" stroke-linecap="round" stroke-linejoin="round" stroke-miterlimit="10"/><text fill="rgb(77,77,255)" stroke="none" font-family="geogebra-sans-serif, sans-serif" font-size="16px" font-style="normal" font-weight="normal" text-decoration="normal" x="667" y="249" text-anchor="start" dominant-baseline="alphabetic" fill-opacity="1">C</text><path fill="rgb(110,109,115)" stroke="none" paint-order="stroke fill markers" d=" M 576.2432981514457 202.35248437397468 C 576.2432981514457 204.56162337329783 574.4524371507689 206.35248437397468 572.2432981514457 206.35248437397468 C 570.0341591521226 206.35248437397468 568.2432981514457 204.56162337329783 568.2432981514457 202.35248437397468 C 568.2432981514457 200.1433453746515 570.0341591521226 198.35248437397468 572.2432981514457 198.35248437397468 C 574.4524371507689 198.35248437397468 576.2432981514457 200.1433453746515 576.2432981514457 202.35248437397468 Z" fill-opacity="1"/><path fill="none" stroke="rgb(0,0,0)" paint-order="fill stroke markers" d=" M 576.2432981514457 202.35248437397468 C 576.2432981514457 204.56162337329783 574.4524371507689 206.35248437397468 572.2432981514457 206.35248437397468 C 570.0341591521226 206.35248437397468 568.2432981514457 204.56162337329783 568.2432981514457 202.35248437397468 C 568.2432981514457 200.1433453746515 570.0341591521226 198.35248437397468 572.2432981514457 198.35248437397468 C 574.4524371507689 198.35248437397468 576.2432981514457 200.1433453746515 576.2432981514457 202.35248437397468 Z" stroke-opacity="1" stroke-linecap="round" stroke-linejoin="round" stroke-miterlimit="10"/><text fill="rgb(110,109,115)" stroke="none" font-family="geogebra-sans-serif, sans-serif" font-size="16px" font-style="normal" font-weight="normal" text-decoration="normal" x="576" y="194" text-anchor="start" dominant-baseline="alphabetic" fill-opacity="1">D</text><path fill="rgb(77,77,255)" stroke="none" paint-order="stroke fill markers" d=" M 567.1754301783716 491.71637550884907 C 567.1754301783716 494.477799258003 564.9368539275256 496.71637550884907 562.1754301783716 496.71637550884907 C 559.4140064292176 496.71637550884907 557.1754301783716 494.477799258003 557.1754301783716 491.71637550884907 C 557.1754301783716 488.9549517596951 559.4140064292176 486.71637550884907 562.1754301783716 486.71637550884907 C 564.9368539275256 486.71637550884907 567.1754301783716 488.9549517596951 567.1754301783716 491.71637550884907 Z" fill-opacity="1"/><path fill="none" stroke="rgb(0,0,0)" paint-order="fill stroke markers" d=" M 567.1754301783716 491.71637550884907 C 567.1754301783716 494.477799258003 564.9368539275256 496.71637550884907 562.1754301783716 496.71637550884907 C 559.4140064292176 496.71637550884907 557.1754301783716 494.477799258003 557.1754301783716 491.71637550884907 C 557.1754301783716 488.9549517596951 559.4140064292176 486.71637550884907 562.1754301783716 486.71637550884907 C 564.9368539275256 486.71637550884907 567.1754301783716 488.9549517596951 567.1754301783716 491.71637550884907 Z" stroke-opacity="1" stroke-linecap="round" stroke-linejoin="round" stroke-miterlimit="10"/><text fill="rgb(77,77,255)" stroke="none" font-family="geogebra-sans-serif, sans-serif" font-size="16px" font-style="normal" font-weight="normal" text-decoration="normal" x="566" y="482" text-anchor="start" dominant-baseline="alphabetic" fill-opacity="1">E</text><path fill="rgb(77,77,255)" stroke="none" paint-order="stroke fill markers" d=" M 872.2588013105535 387.91582024198243 C 872.2588013105535 390.6772439911364 870.0202250597075 392.91582024198243 867.2588013105535 392.91582024198243 C 864.4973775613995 392.91582024198243 862.2588013105535 390.6772439911364 862.2588013105535 387.91582024198243 C 862.2588013105535 385.1543964928285 864.4973775613995 382.91582024198243 867.2588013105535 382.91582024198243 C 870.0202250597075 382.91582024198243 872.2588013105535 385.1543964928285 872.2588013105535 387.91582024198243 Z" fill-opacity="1"/><path fill="none" stroke="rgb(0,0,0)" paint-order="fill stroke markers" d=" M 872.2588013105535 387.91582024198243 C 872.2588013105535 390.6772439911364 870.0202250597075 392.91582024198243 867.2588013105535 392.91582024198243 C 864.4973775613995 392.91582024198243 862.2588013105535 390.6772439911364 862.2588013105535 387.91582024198243 C 862.2588013105535 385.1543964928285 864.4973775613995 382.91582024198243 867.2588013105535 382.91582024198243 C 870.0202250597075 382.91582024198243 872.2588013105535 385.1543964928285 872.2588013105535 387.91582024198243 Z" stroke-opacity="1" stroke-linecap="round" stroke-linejoin="round" stroke-miterlimit="10"/><text fill="rgb(77,77,255)" stroke="none" font-family="geogebra-sans-serif, sans-serif" font-size="16px" font-style="normal" font-weight="normal" text-decoration="normal" x="871" y="378" text-anchor="start" dominant-baseline="alphabetic" fill-opacity="1">F</text><path fill="rgb(110,109,115)" stroke="none" paint-order="stroke fill markers" d=" M 570.9363288366515 354.88182774331847 C 570.9363288366515 357.0909667426416 569.1454678359746 358.88182774331847 566.9363288366515 358.88182774331847 C 564.7271898373283 358.88182774331847 562.9363288366515 357.0909667426416 562.9363288366515 354.88182774331847 C 562.9363288366515 352.6726887439953 564.7271898373283 350.88182774331847 566.9363288366515 350.88182774331847 C 569.1454678359746 350.88182774331847 570.9363288366515 352.6726887439953 570.9363288366515 354.88182774331847 Z" fill-opacity="1"/><path fill="none" stroke="rgb(0,0,0)" paint-order="fill stroke markers" d=" M 570.9363288366515 354.88182774331847 C 570.9363288366515 357.0909667426416 569.1454678359746 358.88182774331847 566.9363288366515 358.88182774331847 C 564.7271898373283 358.88182774331847 562.9363288366515 357.0909667426416 562.9363288366515 354.88182774331847 C 562.9363288366515 352.6726887439953 564.7271898373283 350.88182774331847 566.9363288366515 350.88182774331847 C 569.1454678359746 350.88182774331847 570.9363288366515 352.6726887439953 570.9363288366515 354.88182774331847 Z" stroke-opacity="1" stroke-linecap="round" stroke-linejoin="round" stroke-miterlimit="10"/><text fill="rgb(110,109,115)" stroke="none" font-family="geogebra-sans-serif, sans-serif" font-size="16px" font-style="normal" font-weight="normal" text-decoration="normal" x="571" y="347" text-anchor="start" dominant-baseline="alphabetic" fill-opacity="1">G</text><path fill="rgb(110,109,115)" stroke="none" paint-order="stroke fill markers" d=" M 705.4336827137532 283.6126163492202 C 705.4336827137532 285.8217553485434 703.6428217130764 287.6126163492202 701.4336827137532 287.6126163492202 C 699.2245437144301 287.6126163492202 697.4336827137532 285.8217553485434 697.4336827137532 283.6126163492202 C 697.4336827137532 281.40347734989706 699.2245437144301 279.6126163492202 701.4336827137532 279.6126163492202 C 703.6428217130764 279.6126163492202 705.4336827137532 281.40347734989706 705.4336827137532 283.6126163492202 Z" fill-opacity="1"/><path fill="none" stroke="rgb(0,0,0)" paint-order="fill stroke markers" d=" M 705.4336827137532 283.6126163492202 C 705.4336827137532 285.8217553485434 703.6428217130764 287.6126163492202 701.4336827137532 287.6126163492202 C 699.2245437144301 287.6126163492202 697.4336827137532 285.8217553485434 697.4336827137532 283.6126163492202 C 697.4336827137532 281.40347734989706 699.2245437144301 279.6126163492202 701.4336827137532 279.6126163492202 C 703.6428217130764 279.6126163492202 705.4336827137532 281.40347734989706 705.4336827137532 283.6126163492202 Z" stroke-opacity="1" stroke-linecap="round" stroke-linejoin="round" stroke-miterlimit="10"/><text fill="rgb(110,109,115)" stroke="none" font-family="geogebra-sans-serif, sans-serif" font-size="16px" font-style="normal" font-weight="normal" text-decoration="normal" x="705" y="276" text-anchor="start" dominant-baseline="alphabetic" fill-opacity="1">H</text></g></g></svg>