<svg version="1.1" xmlns="http://www.w3.org/2000/svg" xmlns:xlink="http://www.w3.org/1999/xlink" width="1276" height="580"><defs><clipPath id="ccrAuTEbMEuG"><path fill="none" stroke="none" d=" M 0 0 L 1276 0 L 1276 580 L 0 580 L 0 0 Z"/></clipPath></defs><g transform="scale(1,1)" clip-path="url(#ccrAuTEbMEuG)"><g><rect fill="rgb(255,255,255)" stroke="none" x="0" y="0" width="1277" height="580" fill-opacity="1"/><path fill="rgb(153,51,0)" stroke="none" paint-order="stroke fill markers" fill-rule="evenodd" d=" M 631.5679999999998 354.5365000000001 L 750.7872219855461 106.15789048364701 L 852.6897930903028 383.37835422804676 Z" fill-opacity="0.09803921568627451"/><path fill="rgb(153,51,0)" stroke="none" paint-order="stroke fill markers" fill-rule="evenodd" d=" M 313.9429999999997 322.77400000000006 L 433.16222198554607 74.39539048364696 L 535.0647930903028 351.6158542280467 Z" fill-opacity="0.09803921568627451"/><path fill="none" stroke="rgb(153,51,0)" paint-order="fill stroke markers" d=" M 631.5679999999998 354.5365000000001 L 750.7872219855461 106.15789048364701" stroke-opacity="0.6980392156862745" stroke-linecap="round" stroke-linejoin="round" stroke-miterlimit="10" stroke-width="2.5"/><path fill="none" stroke="rgb(153,51,0)" paint-order="fill stroke markers" d=" M 750.7872219855461 106.15789048364701 L 852.6897930903028 383.37835422804676" stroke-opacity="0.6980392156862745" stroke-linecap="round" stroke-linejoin="round" stroke-miterlimit="10" stroke-width="2.5"/><path fill="none" stroke="rgb(153,51,0)" paint-order="fill stroke markers" d=" M 852.6897930903028 383.37835422804676 L 631.5679999999998 354.5365000000001" stroke-opacity="0.6980392156862745" stroke-linecap="round" stroke-linejoin="round" stroke-miterlimit="10" stroke-width="2.5"/><path fill="none" stroke="rgb(153,51,0)" paint-order="fill stroke markers" d=" M 313.9429999999997 322.77400000000006 L 433.16222198554607 74.39539048364696" stroke-opacity="0.6980392156862745" stroke-linecap="round" stroke-linejoin="round" stroke-miterlimit="10" stroke-width="2.5"/><path fill="none" stroke="rgb(153,51,0)" paint-order="fill stroke markers" d=" M 433.16222198554607 74.39539048364696 L 535.0647930903028 351.6158542280467" stroke-opacity="0.6980392156862745" stroke-linecap="round" stroke-linejoin="round" stroke-miterlimit="10" stroke-width="2.5"/><path fill="none" stroke="rgb(153,51,0)" paint-order="fill stroke markers" d=" M 535.0647930903028 351.6158542280467 L 313.9429999999997 322.77400000000006" stroke-opacity="0.6980392156862745" stroke-linecap="round" stroke-linejoin="round" stroke-miterlimit="10" stroke-width="2.5"/><path fill="rgb(77,77,255)" stroke="none" paint-order="stroke fill markers" d=" M 636.5679999999998 354.5365000000001 C 636.5679999999998 357.29792374915405 634.3294237491538 359.5365000000001 631.5679999999998 359.5365000000001 C 628.8065762508458 359.5365000000001 626.5679999999998 357.29792374915405 626.5679999999998 354.5365000000001 C 626.5679999999998 351.77507625084615 628.8065762508458 349.5365000000001 631.5679999999998 349.5365000000001 C 634.3294237491538 349.5365000000001 636.5679999999998 351.77507625084615 636.5679999999998 354.5365000000001 Z" fill-opacity="1"/><path fill="none" stroke="rgb(0,0,0)" paint-order="fill stroke markers" d=" M 636.5679999999998 354.5365000000001 C 636.5679999999998 357.29792374915405 634.3294237491538 359.5365000000001 631.5679999999998 359.5365000000001 C 628.8065762508458 359.5365000000001 626.5679999999998 357.29792374915405 626.5679999999998 354.5365000000001 C 626.5679999999998 351.77507625084615 628.8065762508458 349.5365000000001 631.5679999999998 349.5365000000001 C 634.3294237491538 349.5365000000001 636.5679999999998 351.77507625084615 636.5679999999998 354.5365000000001 Z" stroke-opacity="1" stroke-linecap="round" stroke-linejoin="round" stroke-miterlimit="10"/><text fill="rgb(77,77,255)" stroke="none" font-family="geogebra-sans-serif, sans-serif" font-size="16px" font-style="normal" font-weight="normal" text-decoration="normal" x="636" y="345" text-anchor="start" dominant-baseline="alphabetic" fill-opacity="1">A</text><path fill="rgb(77,77,255)" stroke="none" paint-order="stroke fill markers" d=" M 755.7872219855461 106.15789048364701 C 755.7872219855461 108.91931423280097 753.5486457347001 111.15789048364701 750.7872219855461 111.15789048364701 C 748.0257982363921 111.15789048364701 745.7872219855461 108.91931423280097 745.7872219855461 106.15789048364701 C 745.7872219855461 103.39646673449305 748.0257982363921 101.15789048364701 750.7872219855461 101.15789048364701 C 753.5486457347001 101.15789048364701 755.7872219855461 103.39646673449305 755.7872219855461 106.15789048364701 Z" fill-opacity="1"/><path fill="none" stroke="rgb(0,0,0)" paint-order="fill stroke markers" d=" M 755.7872219855461 106.15789048364701 C 755.7872219855461 108.91931423280097 753.5486457347001 111.15789048364701 750.7872219855461 111.15789048364701 C 748.0257982363921 111.15789048364701 745.7872219855461 108.91931423280097 745.7872219855461 106.15789048364701 C 745.7872219855461 103.39646673449305 748.0257982363921 101.15789048364701 750.7872219855461 101.15789048364701 C 753.5486457347001 101.15789048364701 755.7872219855461 103.39646673449305 755.7872219855461 106.15789048364701 Z" stroke-opacity="1" stroke-linecap="round" stroke-linejoin="round" stroke-miterlimit="10"/><text fill="rgb(77,77,255)" stroke="none" font-family="geogebra-sans-serif, sans-serif" font-size="16px" font-style="normal" font-weight="normal" text-decoration="normal" x="755" y="96" text-anchor="start" dominant-baseline="alphabetic" fill-opacity="1">B</text><path fill="rgb(77,77,255)" stroke="none" paint-order="stroke fill markers" d=" M 857.6897930903028 383.37835422804676 C 857.6897930903028 386.1397779772007 855.4512168394568 388.37835422804676 852.6897930903028 388.37835422804676 C 849.9283693411488 388.37835422804676 847.6897930903028 386.1397779772007 847.6897930903028 383.37835422804676 C 847.6897930903028 380.6169304788928 849.9283693411488 378.37835422804676 852.6897930903028 378.37835422804676 C 855.4512168394568 378.37835422804676 857.6897930903028 380.6169304788928 857.6897930903028 383.37835422804676 Z" fill-opacity="1"/><path fill="none" stroke="rgb(0,0,0)" paint-order="fill stroke markers" d=" M 857.6897930903028 383.37835422804676 C 857.6897930903028 386.1397779772007 855.4512168394568 388.37835422804676 852.6897930903028 388.37835422804676 C 849.9283693411488 388.37835422804676 847.6897930903028 386.1397779772007 847.6897930903028 383.37835422804676 C 847.6897930903028 380.6169304788928 849.9283693411488 378.37835422804676 852.6897930903028 378.37835422804676 C 855.4512168394568 378.37835422804676 857.6897930903028 380.6169304788928 857.6897930903028 383.37835422804676 Z" stroke-opacity="1" stroke-linecap="round" stroke-linejoin="round" stroke-miterlimit="10"/><text fill="rgb(77,77,255)" stroke="none" font-family="geogebra-sans-serif, sans-serif" font-size="16px" font-style="normal" font-weight="normal" text-decoration="normal" x="857" y="373" text-anchor="start" dominant-baseline="alphabetic" fill-opacity="1">C</text><path fill="rgb(77,77,255)" stroke="none" paint-order="stroke fill markers" d=" M 318.9429999999997 322.77400000000006 C 318.9429999999997 325.535423749154 316.70442374915365 327.77400000000006 313.9429999999997 327.77400000000006 C 311.18157625084575 327.77400000000006 308.9429999999997 325.535423749154 308.9429999999997 322.77400000000006 C 308.9429999999997 320.0125762508461 311.18157625084575 317.77400000000006 313.9429999999997 317.77400000000006 C 316.70442374915365 317.77400000000006 318.9429999999997 320.0125762508461 318.9429999999997 322.77400000000006 Z" fill-opacity="1"/><path fill="none" stroke="rgb(0,0,0)" paint-order="fill stroke markers" d=" M 318.9429999999997 322.77400000000006 C 318.9429999999997 325.535423749154 316.70442374915365 327.77400000000006 313.9429999999997 327.77400000000006 C 311.18157625084575 327.77400000000006 308.9429999999997 325.535423749154 308.9429999999997 322.77400000000006 C 308.9429999999997 320.0125762508461 311.18157625084575 317.77400000000006 313.9429999999997 317.77400000000006 C 316.70442374915365 317.77400000000006 318.9429999999997 320.0125762508461 318.9429999999997 322.77400000000006 Z" stroke-opacity="1" stroke-linecap="round" stroke-linejoin="round" stroke-miterlimit="10"/><text fill="rgb(77,77,255)" stroke="none" font-family="geogebra-sans-serif, sans-serif" font-size="16px" font-style="normal" font-weight="normal" text-decoration="normal" x="318" y="313" text-anchor="start" dominant-baseline="alphabetic" fill-opacity="1">E</text><path fill="rgb(77,77,255)" stroke="none" paint-order="stroke fill markers" d=" M 438.16222198554607 74.39539048364696 C 438.16222198554607 77.15681423280093 435.9236457347 79.39539048364696 433.16222198554607 79.39539048364696 C 430.4007982363921 79.39539048364696 428.16222198554607 77.15681423280093 428.16222198554607 74.39539048364696 C 428.16222198554607 71.633966734493 430.4007982363921 69.39539048364696 433.16222198554607 69.39539048364696 C 435.9236457347 69.39539048364696 438.16222198554607 71.633966734493 438.16222198554607 74.39539048364696 Z" fill-opacity="1"/><path fill="none" stroke="rgb(0,0,0)" paint-order="fill stroke markers" d=" M 438.16222198554607 74.39539048364696 C 438.16222198554607 77.15681423280093 435.9236457347 79.39539048364696 433.16222198554607 79.39539048364696 C 430.4007982363921 79.39539048364696 428.16222198554607 77.15681423280093 428.16222198554607 74.39539048364696 C 428.16222198554607 71.633966734493 430.4007982363921 69.39539048364696 433.16222198554607 69.39539048364696 C 435.9236457347 69.39539048364696 438.16222198554607 71.633966734493 438.16222198554607 74.39539048364696 Z" stroke-opacity="1" stroke-linecap="round" stroke-linejoin="round" stroke-miterlimit="10"/><text fill="rgb(77,77,255)" stroke="none" font-family="geogebra-sans-serif, sans-serif" font-size="16px" font-style="normal" font-weight="normal" text-decoration="normal" x="437" y="64" text-anchor="start" dominant-baseline="alphabetic" fill-opacity="1">D</text><path fill="rgb(77,77,255)" stroke="none" paint-order="stroke fill markers" d=" M 540.0647930903028 351.6158542280467 C 540.0647930903028 354.37727797720066 537.8262168394568 356.6158542280467 535.0647930903028 356.6158542280467 C 532.3033693411488 356.6158542280467 530.0647930903028 354.37727797720066 530.0647930903028 351.6158542280467 C 530.0647930903028 348.85443047889277 532.3033693411488 346.6158542280467 535.0647930903028 346.6158542280467 C 537.8262168394568 346.6158542280467 540.0647930903028 348.85443047889277 540.0647930903028 351.6158542280467 Z" fill-opacity="1"/><path fill="none" stroke="rgb(0,0,0)" paint-order="fill stroke markers" d=" M 540.0647930903028 351.6158542280467 C 540.0647930903028 354.37727797720066 537.8262168394568 356.6158542280467 535.0647930903028 356.6158542280467 C 532.3033693411488 356.6158542280467 530.0647930903028 354.37727797720066 530.0647930903028 351.6158542280467 C 530.0647930903028 348.85443047889277 532.3033693411488 346.6158542280467 535.0647930903028 346.6158542280467 C 537.8262168394568 346.6158542280467 540.0647930903028 348.85443047889277 540.0647930903028 351.6158542280467 Z" stroke-opacity="1" stroke-linecap="round" stroke-linejoin="round" stroke-miterlimit="10"/><text fill="rgb(77,77,255)" stroke="none" font-family="geogebra-sans-serif, sans-serif" font-size="16px" font-style="normal" font-weight="normal" text-decoration="normal" x="539" y="342" text-anchor="start" dominant-baseline="alphabetic" fill-opacity="1">F</text></g></g></svg>