<svg version="1.1" xmlns="http://www.w3.org/2000/svg" xmlns:xlink="http://www.w3.org/1999/xlink" width="1276" height="580"><defs><clipPath id="WyZMMTmVLWsq"><path fill="none" stroke="none" d=" M 0 0 L 1276 0 L 1276 580 L 0 580 L 0 0 Z"/></clipPath></defs><g transform="scale(1,1)" clip-path="url(#WyZMMTmVLWsq)"><g><rect fill="rgb(255,255,255)" stroke="none" x="0" y="0" width="1277" height="580" fill-opacity="1"/><path fill="none" stroke="rgb(0,0,0)" paint-order="fill stroke markers" d=" M 643.9834912270908 226.54883472184133 C 643.9834912270908 291.78154091504456 591.101934418846 344.66309772328935 525.8692282256428 344.66309772328935 C 460.63652203243964 344.66309772328935 407.75496522419496 291.78154091504456 407.75496522419496 226.54883472184133 C 407.75496522419496 161.31612852863807 460.63652203243964 108.4345717203933 525.8692282256428 108.4345717203933 C 591.101934418846 108.4345717203933 643.9834912270908 161.31612852863807 643.9834912270908 226.54883472184133 Z" stroke-opacity="0.6980392156862745" stroke-linecap="round" stroke-linejoin="round" stroke-miterlimit="10" stroke-width="2.5"/><path fill="none" stroke="rgb(0,0,0)" paint-order="fill stroke markers" d=" M 525.8692282256429 226.54883472184133 C 525.8692282256429 291.78154091504456 472.98767141739813 344.66309772328935 407.75496522419496 344.66309772328935 C 342.5222590309918 344.66309772328935 289.6407022227471 291.78154091504456 289.6407022227471 226.54883472184133 C 289.6407022227471 161.31612852863807 342.5222590309918 108.4345717203933 407.75496522419496 108.4345717203933 C 472.98767141739813 108.4345717203933 525.8692282256429 161.31612852863807 525.8692282256429 226.54883472184133 Z" stroke-opacity="0.6980392156862745" stroke-linecap="round" stroke-linejoin="round" stroke-miterlimit="10" stroke-width="2.5"/><path fill="none" stroke="rgb(0,0,0)" paint-order="fill stroke markers" d=" M 407.75496522419496 226.54883472184133 L 525.8692282256428 226.54883472184133" stroke-opacity="0.6980392156862745" stroke-linecap="round" stroke-linejoin="round" stroke-miterlimit="10" stroke-width="2.5"/><path fill="none" stroke="rgb(0,0,0)" paint-order="fill stroke markers" d=" M 407.75496522419496 226.54883472184133 L 466.8120967249189 124.25888241331089" stroke-opacity="0.6980392156862745" stroke-linecap="round" stroke-linejoin="round" stroke-miterlimit="10" stroke-width="2.5"/><path fill="none" stroke="rgb(0,0,0)" paint-order="fill stroke markers" d=" M 466.8120967249189 124.25888241331089 L 525.8692282256428 226.54883472184133" stroke-opacity="0.6980392156862745" stroke-linecap="round" stroke-linejoin="round" stroke-miterlimit="10" stroke-width="2.5"/><path fill="rgb(77,77,255)" stroke="none" paint-order="stroke fill markers" d=" M 412.75496522419496 226.54883472184133 C 412.75496522419496 229.3102584709953 410.5163889733489 231.54883472184133 407.75496522419496 231.54883472184133 C 404.993541475041 231.54883472184133 402.75496522419496 229.3102584709953 402.75496522419496 226.54883472184133 C 402.75496522419496 223.78741097268735 404.993541475041 221.54883472184133 407.75496522419496 221.54883472184133 C 410.5163889733489 221.54883472184133 412.75496522419496 223.78741097268735 412.75496522419496 226.54883472184133 Z" fill-opacity="1"/><path fill="none" stroke="rgb(0,0,0)" paint-order="fill stroke markers" d=" M 412.75496522419496 226.54883472184133 C 412.75496522419496 229.3102584709953 410.5163889733489 231.54883472184133 407.75496522419496 231.54883472184133 C 404.993541475041 231.54883472184133 402.75496522419496 229.3102584709953 402.75496522419496 226.54883472184133 C 402.75496522419496 223.78741097268735 404.993541475041 221.54883472184133 407.75496522419496 221.54883472184133 C 410.5163889733489 221.54883472184133 412.75496522419496 223.78741097268735 412.75496522419496 226.54883472184133 Z" stroke-opacity="1" stroke-linecap="round" stroke-linejoin="round" stroke-miterlimit="10"/><text fill="rgb(77,77,255)" stroke="none" font-family="geogebra-sans-serif, sans-serif" font-size="16px" font-style="normal" font-weight="normal" text-decoration="normal" x="412" y="217" text-anchor="start" dominant-baseline="alphabetic" fill-opacity="1">A</text><path fill="rgb(77,77,255)" stroke="none" paint-order="stroke fill markers" d=" M 530.8692282256428 226.54883472184133 C 530.8692282256428 229.3102584709953 528.6306519747968 231.54883472184133 525.8692282256428 231.54883472184133 C 523.1078044764888 231.54883472184133 520.8692282256428 229.3102584709953 520.8692282256428 226.54883472184133 C 520.8692282256428 223.78741097268735 523.1078044764888 221.54883472184133 525.8692282256428 221.54883472184133 C 528.6306519747968 221.54883472184133 530.8692282256428 223.78741097268735 530.8692282256428 226.54883472184133 Z" fill-opacity="1"/><path fill="none" stroke="rgb(0,0,0)" paint-order="fill stroke markers" d=" M 530.8692282256428 226.54883472184133 C 530.8692282256428 229.3102584709953 528.6306519747968 231.54883472184133 525.8692282256428 231.54883472184133 C 523.1078044764888 231.54883472184133 520.8692282256428 229.3102584709953 520.8692282256428 226.54883472184133 C 520.8692282256428 223.78741097268735 523.1078044764888 221.54883472184133 525.8692282256428 221.54883472184133 C 528.6306519747968 221.54883472184133 530.8692282256428 223.78741097268735 530.8692282256428 226.54883472184133 Z" stroke-opacity="1" stroke-linecap="round" stroke-linejoin="round" stroke-miterlimit="10"/><text fill="rgb(77,77,255)" stroke="none" font-family="geogebra-sans-serif, sans-serif" font-size="16px" font-style="normal" font-weight="normal" text-decoration="normal" x="530" y="217" text-anchor="start" dominant-baseline="alphabetic" fill-opacity="1">B</text><path fill="rgb(110,109,115)" stroke="none" paint-order="stroke fill markers" d=" M 470.8120967249189 124.25888241331089 C 470.8120967249189 126.46802141263406 469.02123572424205 128.2588824133109 466.8120967249189 128.2588824133109 C 464.60295772559573 128.2588824133109 462.8120967249189 126.46802141263406 462.8120967249189 124.25888241331089 C 462.8120967249189 122.04974341398771 464.60295772559573 120.25888241331089 466.8120967249189 120.25888241331089 C 469.02123572424205 120.25888241331089 470.8120967249189 122.04974341398771 470.8120967249189 124.25888241331089 Z" fill-opacity="1"/><path fill="none" stroke="rgb(0,0,0)" paint-order="fill stroke markers" d=" M 470.8120967249189 124.25888241331089 C 470.8120967249189 126.46802141263406 469.02123572424205 128.2588824133109 466.8120967249189 128.2588824133109 C 464.60295772559573 128.2588824133109 462.8120967249189 126.46802141263406 462.8120967249189 124.25888241331089 C 462.8120967249189 122.04974341398771 464.60295772559573 120.25888241331089 466.8120967249189 120.25888241331089 C 469.02123572424205 120.25888241331089 470.8120967249189 122.04974341398771 470.8120967249189 124.25888241331089 Z" stroke-opacity="1" stroke-linecap="round" stroke-linejoin="round" stroke-miterlimit="10"/><text fill="rgb(110,109,115)" stroke="none" font-family="geogebra-sans-serif, sans-serif" font-size="16px" font-style="normal" font-weight="normal" text-decoration="normal" x="471" y="116" text-anchor="start" dominant-baseline="alphabetic" fill-opacity="1">C</text></g></g></svg>