<svg version="1.1" xmlns="http://www.w3.org/2000/svg" xmlns:xlink="http://www.w3.org/1999/xlink" width="1276" height="580"><defs><clipPath id="gleVmAnExwOy"><path fill="none" stroke="none" d=" M 0 0 L 1276 0 L 1276 580 L 0 580 L 0 0 Z"/></clipPath></defs><g transform="scale(1,1)" clip-path="url(#gleVmAnExwOy)"><g><rect fill="rgb(255,255,255)" stroke="none" x="0" y="0" width="1277" height="580" fill-opacity="1"/><path fill="none" stroke="rgb(0,0,0)" paint-order="fill stroke markers" d=" M 501.51869598318694 293.60937797193503 C 501.51869598318694 342.92511333098884 461.5403934855684 382.90341582860765 412.2246581265149 382.90341582860765 C 362.9089227674614 382.90341582860765 322.93062026984285 342.92511333098884 322.93062026984285 293.60937797193503 C 322.93062026984285 244.2936426128812 362.9089227674614 204.31534011526242 412.2246581265149 204.31534011526242 C 461.5403934855684 204.31534011526242 501.51869598318694 244.2936426128812 501.51869598318694 293.60937797193503 Z" stroke-opacity="0.6980392156862745" stroke-linecap="round" stroke-linejoin="round" stroke-miterlimit="10" stroke-width="2.5"/><path fill="none" stroke="rgb(0,0,0)" paint-order="fill stroke markers" d=" M 412.2246581265149 293.60937797193503 L 877.967896671995 293.1504983404463" stroke-opacity="0.6980392156862745" stroke-linecap="round" stroke-linejoin="round" stroke-miterlimit="10" stroke-width="2.5"/><text fill="rgb(0,0,0)" stroke="none" font-family="geogebra-sans-serif, sans-serif" font-size="16px" font-style="normal" font-weight="normal" text-decoration="normal" x="481" y="180" text-anchor="start" dominant-baseline="alphabetic" fill-opacity="1">C</text><path fill="none" stroke="rgb(0,0,0)" paint-order="fill stroke markers" d=" M 436.1522010268184 164.90274952285637 L 525.4357413257638 163.48555047049217" stroke-opacity="0.6980392156862745" stroke-linecap="round" stroke-linejoin="round" stroke-miterlimit="10" stroke-width="2.5"/><path fill="none" stroke="rgb(0,0,0)" paint-order="fill stroke markers" d=" M 412.2246581265149 293.60937797193503 L 480.4651146288819 351.1998745238608" stroke-opacity="0.6980392156862745" stroke-linecap="round" stroke-linejoin="round" stroke-miterlimit="10" stroke-width="2.5"/><path fill="rgb(77,77,255)" stroke="none" paint-order="stroke fill markers" d=" M 417.2246581265149 293.60937797193503 C 417.2246581265149 296.370801721089 414.98608187566884 298.60937797193503 412.2246581265149 298.60937797193503 C 409.46323437736095 298.60937797193503 407.2246581265149 296.370801721089 407.2246581265149 293.60937797193503 C 407.2246581265149 290.8479542227811 409.46323437736095 288.60937797193503 412.2246581265149 288.60937797193503 C 414.98608187566884 288.60937797193503 417.2246581265149 290.8479542227811 417.2246581265149 293.60937797193503 Z" fill-opacity="1"/><path fill="none" stroke="rgb(0,0,0)" paint-order="fill stroke markers" d=" M 417.2246581265149 293.60937797193503 C 417.2246581265149 296.370801721089 414.98608187566884 298.60937797193503 412.2246581265149 298.60937797193503 C 409.46323437736095 298.60937797193503 407.2246581265149 296.370801721089 407.2246581265149 293.60937797193503 C 407.2246581265149 290.8479542227811 409.46323437736095 288.60937797193503 412.2246581265149 288.60937797193503 C 414.98608187566884 288.60937797193503 417.2246581265149 290.8479542227811 417.2246581265149 293.60937797193503 Z" stroke-opacity="1" stroke-linecap="round" stroke-linejoin="round" stroke-miterlimit="10"/><text fill="rgb(77,77,255)" stroke="none" font-family="geogebra-sans-serif, sans-serif" font-size="16px" font-style="normal" font-weight="normal" text-decoration="normal" x="416" y="284" text-anchor="start" dominant-baseline="alphabetic" fill-opacity="1">A</text><path fill="rgb(77,77,255)" stroke="none" paint-order="stroke fill markers" d=" M 882.967896671995 293.1504983404463 C 882.967896671995 295.91192208960024 880.729320421149 298.1504983404463 877.967896671995 298.1504983404463 C 875.206472922841 298.1504983404463 872.967896671995 295.91192208960024 872.967896671995 293.1504983404463 C 872.967896671995 290.38907459129234 875.206472922841 288.1504983404463 877.967896671995 288.1504983404463 C 880.729320421149 288.1504983404463 882.967896671995 290.38907459129234 882.967896671995 293.1504983404463 Z" fill-opacity="1"/><path fill="none" stroke="rgb(0,0,0)" paint-order="fill stroke markers" d=" M 882.967896671995 293.1504983404463 C 882.967896671995 295.91192208960024 880.729320421149 298.1504983404463 877.967896671995 298.1504983404463 C 875.206472922841 298.1504983404463 872.967896671995 295.91192208960024 872.967896671995 293.1504983404463 C 872.967896671995 290.38907459129234 875.206472922841 288.1504983404463 877.967896671995 288.1504983404463 C 880.729320421149 288.1504983404463 882.967896671995 290.38907459129234 882.967896671995 293.1504983404463 Z" stroke-opacity="1" stroke-linecap="round" stroke-linejoin="round" stroke-miterlimit="10"/><text fill="rgb(77,77,255)" stroke="none" font-family="geogebra-sans-serif, sans-serif" font-size="16px" font-style="normal" font-weight="normal" text-decoration="normal" x="882" y="283" text-anchor="start" dominant-baseline="alphabetic" fill-opacity="1">B</text><path fill="rgb(77,77,255)" stroke="none" paint-order="stroke fill markers" d=" M 441.1522010268184 164.90274952285637 C 441.1522010268184 167.66417327201034 438.9136247759723 169.90274952285637 436.1522010268184 169.90274952285637 C 433.3907772776644 169.90274952285637 431.1522010268184 167.66417327201034 431.1522010268184 164.90274952285637 C 431.1522010268184 162.1413257737024 433.3907772776644 159.90274952285637 436.1522010268184 159.90274952285637 C 438.9136247759723 159.90274952285637 441.1522010268184 162.1413257737024 441.1522010268184 164.90274952285637 Z" fill-opacity="1"/><path fill="none" stroke="rgb(0,0,0)" paint-order="fill stroke markers" d=" M 441.1522010268184 164.90274952285637 C 441.1522010268184 167.66417327201034 438.9136247759723 169.90274952285637 436.1522010268184 169.90274952285637 C 433.3907772776644 169.90274952285637 431.1522010268184 167.66417327201034 431.1522010268184 164.90274952285637 C 431.1522010268184 162.1413257737024 433.3907772776644 159.90274952285637 436.1522010268184 159.90274952285637 C 438.9136247759723 159.90274952285637 441.1522010268184 162.1413257737024 441.1522010268184 164.90274952285637 Z" stroke-opacity="1" stroke-linecap="round" stroke-linejoin="round" stroke-miterlimit="10"/><path fill="rgb(77,77,255)" stroke="none" paint-order="stroke fill markers" d=" M 530.4357413257638 163.48555047049217 C 530.4357413257638 166.24697421964615 528.1971650749178 168.48555047049217 525.4357413257638 168.48555047049217 C 522.6743175766098 168.48555047049217 520.4357413257638 166.24697421964615 520.4357413257638 163.48555047049217 C 520.4357413257638 160.7241267213382 522.6743175766098 158.48555047049217 525.4357413257638 158.48555047049217 C 528.1971650749178 158.48555047049217 530.4357413257638 160.7241267213382 530.4357413257638 163.48555047049217 Z" fill-opacity="1"/><path fill="none" stroke="rgb(0,0,0)" paint-order="fill stroke markers" d=" M 530.4357413257638 163.48555047049217 C 530.4357413257638 166.24697421964615 528.1971650749178 168.48555047049217 525.4357413257638 168.48555047049217 C 522.6743175766098 168.48555047049217 520.4357413257638 166.24697421964615 520.4357413257638 163.48555047049217 C 520.4357413257638 160.7241267213382 522.6743175766098 158.48555047049217 525.4357413257638 158.48555047049217 C 528.1971650749178 158.48555047049217 530.4357413257638 160.7241267213382 530.4357413257638 163.48555047049217 Z" stroke-opacity="1" stroke-linecap="round" stroke-linejoin="round" stroke-miterlimit="10"/><path fill="rgb(110,109,115)" stroke="none" paint-order="stroke fill markers" d=" M 484.4651146288819 351.1998745238608 C 484.4651146288819 353.40901352318394 482.67425362820507 355.1998745238608 480.4651146288819 355.1998745238608 C 478.25597562955875 355.1998745238608 476.4651146288819 353.40901352318394 476.4651146288819 351.1998745238608 C 476.4651146288819 348.9907355245376 478.25597562955875 347.1998745238608 480.4651146288819 347.1998745238608 C 482.67425362820507 347.1998745238608 484.4651146288819 348.9907355245376 484.4651146288819 351.1998745238608 Z" fill-opacity="1"/><path fill="none" stroke="rgb(0,0,0)" paint-order="fill stroke markers" d=" M 484.4651146288819 351.1998745238608 C 484.4651146288819 353.40901352318394 482.67425362820507 355.1998745238608 480.4651146288819 355.1998745238608 C 478.25597562955875 355.1998745238608 476.4651146288819 353.40901352318394 476.4651146288819 351.1998745238608 C 476.4651146288819 348.9907355245376 478.25597562955875 347.1998745238608 480.4651146288819 347.1998745238608 C 482.67425362820507 347.1998745238608 484.4651146288819 348.9907355245376 484.4651146288819 351.1998745238608 Z" stroke-opacity="1" stroke-linecap="round" stroke-linejoin="round" stroke-miterlimit="10"/><text fill="rgb(110,109,115)" stroke="none" font-family="geogebra-sans-serif, sans-serif" font-size="16px" font-style="normal" font-weight="normal" text-decoration="normal" x="484" y="343" text-anchor="start" dominant-baseline="alphabetic" fill-opacity="1">D</text><path fill="rgb(110,109,115)" stroke="none" paint-order="stroke fill markers" d=" M 505.51865264241974 293.5213998932289 C 505.51865264241974 295.73053889255203 503.7277916417429 297.5213998932289 501.51865264241974 297.5213998932289 C 499.3095136430966 297.5213998932289 497.51865264241974 295.73053889255203 497.51865264241974 293.5213998932289 C 497.51865264241974 291.3122608939057 499.3095136430966 289.5213998932289 501.51865264241974 289.5213998932289 C 503.7277916417429 289.5213998932289 505.51865264241974 291.3122608939057 505.51865264241974 293.5213998932289 Z" fill-opacity="1"/><path fill="none" stroke="rgb(0,0,0)" paint-order="fill stroke markers" d=" M 505.51865264241974 293.5213998932289 C 505.51865264241974 295.73053889255203 503.7277916417429 297.5213998932289 501.51865264241974 297.5213998932289 C 499.3095136430966 297.5213998932289 497.51865264241974 295.73053889255203 497.51865264241974 293.5213998932289 C 497.51865264241974 291.3122608939057 499.3095136430966 289.5213998932289 501.51865264241974 289.5213998932289 C 503.7277916417429 289.5213998932289 505.51865264241974 291.3122608939057 505.51865264241974 293.5213998932289 Z" stroke-opacity="1" stroke-linecap="round" stroke-linejoin="round" stroke-miterlimit="10"/><text fill="rgb(110,109,115)" stroke="none" font-family="geogebra-sans-serif, sans-serif" font-size="16px" font-style="normal" font-weight="normal" text-decoration="normal" x="506" y="286" text-anchor="start" dominant-baseline="alphabetic" fill-opacity="1">E</text></g></g></svg>