<svg version="1.1" xmlns="http://www.w3.org/2000/svg" xmlns:xlink="http://www.w3.org/1999/xlink" width="1276" height="580"><defs><clipPath id="ZGgSSuGOxkUL"><path fill="none" stroke="none" d=" M 0 0 L 1276 0 L 1276 580 L 0 580 L 0 0 Z"/></clipPath></defs><g transform="scale(1,1)" clip-path="url(#ZGgSSuGOxkUL)"><g><rect fill="rgb(255,255,255)" stroke="none" x="0" y="0" width="1277" height="580" fill-opacity="1"/><path fill="none" stroke="rgb(0,0,0)" paint-order="fill stroke markers" d=" M 559.9328122208781 244.0852069643734 L 665.164060867629 244.8561318628844" stroke-opacity="0.6980392156862745" stroke-linecap="round" stroke-linejoin="round" stroke-miterlimit="10" stroke-width="2.5"/><path fill="none" stroke="rgb(0,0,0)" paint-order="fill stroke markers" d=" M 559.9328122208781 244.0852069643734 L 613.7701979512775 77.70023735485387" stroke-opacity="0.6980392156862745" stroke-linecap="round" stroke-linejoin="round" stroke-miterlimit="10" stroke-width="2.5"/><path fill="none" stroke="rgb(0,0,0)" paint-order="fill stroke markers" d=" M 613.7701979512775 77.70023735485387 L 665.164060867629 244.8561318628844" stroke-opacity="0.6980392156862745" stroke-linecap="round" stroke-linejoin="round" stroke-miterlimit="10" stroke-width="2.5"/><path fill="none" stroke="rgb(0,0,0)" paint-order="fill stroke markers" d=" M 613.7701979512775 77.70023735485387 L 736.5316729165874 482.3091456606651" stroke-opacity="0.6980392156862745" stroke-linecap="round" stroke-linejoin="round" stroke-miterlimit="10" stroke-width="2.5"/><path fill="none" stroke="rgb(0,0,0)" paint-order="fill stroke markers" d=" M 613.7701979512775 77.70023735485387 L 480.9846915708529 487.9379337960337" stroke-opacity="0.6980392156862745" stroke-linecap="round" stroke-linejoin="round" stroke-miterlimit="10" stroke-width="2.5"/><path fill="none" stroke="rgb(0,0,0)" paint-order="fill stroke markers" d=" M 559.9328122208781 244.0852069643734 L 704.8470736200144 377.88003925642784" stroke-opacity="0.6980392156862745" stroke-linecap="round" stroke-linejoin="round" stroke-miterlimit="10" stroke-width="2.5"/><path fill="none" stroke="rgb(0,0,0)" paint-order="fill stroke markers" d=" M 517.1607996568956 376.17269938176656 L 665.164060867629 244.8561318628844" stroke-opacity="0.6980392156862745" stroke-linecap="round" stroke-linejoin="round" stroke-miterlimit="10" stroke-width="2.5"/><path fill="rgb(0,0,0)" stroke="none" paint-order="stroke fill markers" d=" M 564.9328122208781 244.0852069643734 C 564.9328122208781 246.8466307135274 562.6942359700321 249.0852069643734 559.9328122208781 249.0852069643734 C 557.1713884717241 249.0852069643734 554.9328122208781 246.8466307135274 554.9328122208781 244.0852069643734 C 554.9328122208781 241.32378321521944 557.1713884717241 239.0852069643734 559.9328122208781 239.0852069643734 C 562.6942359700321 239.0852069643734 564.9328122208781 241.32378321521944 564.9328122208781 244.0852069643734 Z" fill-opacity="1"/><path fill="none" stroke="rgb(0,0,0)" paint-order="fill stroke markers" d=" M 564.9328122208781 244.0852069643734 C 564.9328122208781 246.8466307135274 562.6942359700321 249.0852069643734 559.9328122208781 249.0852069643734 C 557.1713884717241 249.0852069643734 554.9328122208781 246.8466307135274 554.9328122208781 244.0852069643734 C 554.9328122208781 241.32378321521944 557.1713884717241 239.0852069643734 559.9328122208781 239.0852069643734 C 562.6942359700321 239.0852069643734 564.9328122208781 241.32378321521944 564.9328122208781 244.0852069643734 Z" stroke-opacity="1" stroke-linecap="round" stroke-linejoin="round" stroke-miterlimit="10"/><text fill="rgb(0,0,0)" stroke="none" font-family="geogebra-sans-serif, sans-serif" font-size="16px" font-style="normal" font-weight="normal" text-decoration="normal" x="564" y="234" text-anchor="start" dominant-baseline="alphabetic" fill-opacity="1">C</text><path fill="rgb(0,0,0)" stroke="none" paint-order="stroke fill markers" d=" M 670.164060867629 244.8561318628844 C 670.164060867629 247.6175556120384 667.925484616783 249.8561318628844 665.164060867629 249.8561318628844 C 662.402637118475 249.8561318628844 660.164060867629 247.6175556120384 660.164060867629 244.8561318628844 C 660.164060867629 242.09470811373043 662.402637118475 239.8561318628844 665.164060867629 239.8561318628844 C 667.925484616783 239.8561318628844 670.164060867629 242.09470811373043 670.164060867629 244.8561318628844 Z" fill-opacity="1"/><path fill="none" stroke="rgb(0,0,0)" paint-order="fill stroke markers" d=" M 670.164060867629 244.8561318628844 C 670.164060867629 247.6175556120384 667.925484616783 249.8561318628844 665.164060867629 249.8561318628844 C 662.402637118475 249.8561318628844 660.164060867629 247.6175556120384 660.164060867629 244.8561318628844 C 660.164060867629 242.09470811373043 662.402637118475 239.8561318628844 665.164060867629 239.8561318628844 C 667.925484616783 239.8561318628844 670.164060867629 242.09470811373043 670.164060867629 244.8561318628844 Z" stroke-opacity="1" stroke-linecap="round" stroke-linejoin="round" stroke-miterlimit="10"/><text fill="rgb(0,0,0)" stroke="none" font-family="geogebra-sans-serif, sans-serif" font-size="16px" font-style="normal" font-weight="normal" text-decoration="normal" x="669" y="235" text-anchor="start" dominant-baseline="alphabetic" fill-opacity="1">B</text><path fill="rgb(0,0,0)" stroke="none" paint-order="stroke fill markers" d=" M 618.7701979512775 77.70023735485387 C 618.7701979512775 80.46166110400783 616.5316217004315 82.70023735485387 613.7701979512775 82.70023735485387 C 611.0087742021235 82.70023735485387 608.7701979512775 80.46166110400783 608.7701979512775 77.70023735485387 C 608.7701979512775 74.9388136056999 611.0087742021235 72.70023735485387 613.7701979512775 72.70023735485387 C 616.5316217004315 72.70023735485387 618.7701979512775 74.9388136056999 618.7701979512775 77.70023735485387 Z" fill-opacity="1"/><path fill="none" stroke="rgb(0,0,0)" paint-order="fill stroke markers" d=" M 618.7701979512775 77.70023735485387 C 618.7701979512775 80.46166110400783 616.5316217004315 82.70023735485387 613.7701979512775 82.70023735485387 C 611.0087742021235 82.70023735485387 608.7701979512775 80.46166110400783 608.7701979512775 77.70023735485387 C 608.7701979512775 74.9388136056999 611.0087742021235 72.70023735485387 613.7701979512775 72.70023735485387 C 616.5316217004315 72.70023735485387 618.7701979512775 74.9388136056999 618.7701979512775 77.70023735485387 Z" stroke-opacity="1" stroke-linecap="round" stroke-linejoin="round" stroke-miterlimit="10"/><text fill="rgb(0,0,0)" stroke="none" font-family="geogebra-sans-serif, sans-serif" font-size="16px" font-style="normal" font-weight="normal" text-decoration="normal" x="618" y="68" text-anchor="start" dominant-baseline="alphabetic" fill-opacity="1">A</text><path fill="rgb(0,0,0)" stroke="none" paint-order="stroke fill markers" d=" M 741.5316729165874 482.3091456606651 C 741.5316729165874 485.07056940981903 739.2930966657414 487.3091456606651 736.5316729165874 487.3091456606651 C 733.7702491674333 487.3091456606651 731.5316729165874 485.07056940981903 731.5316729165874 482.3091456606651 C 731.5316729165874 479.54772191151113 733.7702491674333 477.3091456606651 736.5316729165874 477.3091456606651 C 739.2930966657414 477.3091456606651 741.5316729165874 479.54772191151113 741.5316729165874 482.3091456606651 Z" fill-opacity="1"/><path fill="none" stroke="rgb(0,0,0)" paint-order="fill stroke markers" d=" M 741.5316729165874 482.3091456606651 C 741.5316729165874 485.07056940981903 739.2930966657414 487.3091456606651 736.5316729165874 487.3091456606651 C 733.7702491674333 487.3091456606651 731.5316729165874 485.07056940981903 731.5316729165874 482.3091456606651 C 731.5316729165874 479.54772191151113 733.7702491674333 477.3091456606651 736.5316729165874 477.3091456606651 C 739.2930966657414 477.3091456606651 741.5316729165874 479.54772191151113 741.5316729165874 482.3091456606651 Z" stroke-opacity="1" stroke-linecap="round" stroke-linejoin="round" stroke-miterlimit="10"/><text fill="rgb(0,0,0)" stroke="none" font-family="geogebra-sans-serif, sans-serif" font-size="16px" font-style="normal" font-weight="normal" text-decoration="normal" x="741" y="472" text-anchor="start" dominant-baseline="alphabetic" fill-opacity="1">D</text><path fill="rgb(0,0,0)" stroke="none" paint-order="stroke fill markers" d=" M 485.9846915708529 487.9379337960337 C 485.9846915708529 490.69935754518764 483.7461153200068 492.9379337960337 480.9846915708529 492.9379337960337 C 478.2232678216989 492.9379337960337 475.9846915708529 490.69935754518764 475.9846915708529 487.9379337960337 C 475.9846915708529 485.17651004687974 478.2232678216989 482.9379337960337 480.9846915708529 482.9379337960337 C 483.7461153200068 482.9379337960337 485.9846915708529 485.17651004687974 485.9846915708529 487.9379337960337 Z" fill-opacity="1"/><path fill="none" stroke="rgb(0,0,0)" paint-order="fill stroke markers" d=" M 485.9846915708529 487.9379337960337 C 485.9846915708529 490.69935754518764 483.7461153200068 492.9379337960337 480.9846915708529 492.9379337960337 C 478.2232678216989 492.9379337960337 475.9846915708529 490.69935754518764 475.9846915708529 487.9379337960337 C 475.9846915708529 485.17651004687974 478.2232678216989 482.9379337960337 480.9846915708529 482.9379337960337 C 483.7461153200068 482.9379337960337 485.9846915708529 485.17651004687974 485.9846915708529 487.9379337960337 Z" stroke-opacity="1" stroke-linecap="round" stroke-linejoin="round" stroke-miterlimit="10"/><text fill="rgb(0,0,0)" stroke="none" font-family="geogebra-sans-serif, sans-serif" font-size="16px" font-style="normal" font-weight="normal" text-decoration="normal" x="485" y="478" text-anchor="start" dominant-baseline="alphabetic" fill-opacity="1">E</text><path fill="rgb(0,0,0)" stroke="none" paint-order="stroke fill markers" d=" M 522.1607996568956 376.17269938176656 C 522.1607996568956 378.9341231309205 519.9222234060496 381.17269938176656 517.1607996568956 381.17269938176656 C 514.3993759077416 381.17269938176656 512.1607996568956 378.9341231309205 512.1607996568956 376.17269938176656 C 512.1607996568956 373.4112756326126 514.3993759077416 371.17269938176656 517.1607996568956 371.17269938176656 C 519.9222234060496 371.17269938176656 522.1607996568956 373.4112756326126 522.1607996568956 376.17269938176656 Z" fill-opacity="1"/><path fill="none" stroke="rgb(0,0,0)" paint-order="fill stroke markers" d=" M 522.1607996568956 376.17269938176656 C 522.1607996568956 378.9341231309205 519.9222234060496 381.17269938176656 517.1607996568956 381.17269938176656 C 514.3993759077416 381.17269938176656 512.1607996568956 378.9341231309205 512.1607996568956 376.17269938176656 C 512.1607996568956 373.4112756326126 514.3993759077416 371.17269938176656 517.1607996568956 371.17269938176656 C 519.9222234060496 371.17269938176656 522.1607996568956 373.4112756326126 522.1607996568956 376.17269938176656 Z" stroke-opacity="1" stroke-linecap="round" stroke-linejoin="round" stroke-miterlimit="10"/><text fill="rgb(0,0,0)" stroke="none" font-family="geogebra-sans-serif, sans-serif" font-size="16px" font-style="normal" font-weight="normal" text-decoration="normal" x="521" y="366" text-anchor="start" dominant-baseline="alphabetic" fill-opacity="1">F</text><path fill="rgb(0,0,0)" stroke="none" paint-order="stroke fill markers" d=" M 709.8470736200144 377.88003925642784 C 709.8470736200144 380.6414630055818 707.6084973691684 382.88003925642784 704.8470736200144 382.88003925642784 C 702.0856498708604 382.88003925642784 699.8470736200144 380.6414630055818 699.8470736200144 377.88003925642784 C 699.8470736200144 375.1186155072739 702.0856498708604 372.88003925642784 704.8470736200144 372.88003925642784 C 707.6084973691684 372.88003925642784 709.8470736200144 375.1186155072739 709.8470736200144 377.88003925642784 Z" fill-opacity="1"/><path fill="none" stroke="rgb(0,0,0)" paint-order="fill stroke markers" d=" M 709.8470736200144 377.88003925642784 C 709.8470736200144 380.6414630055818 707.6084973691684 382.88003925642784 704.8470736200144 382.88003925642784 C 702.0856498708604 382.88003925642784 699.8470736200144 380.6414630055818 699.8470736200144 377.88003925642784 C 699.8470736200144 375.1186155072739 702.0856498708604 372.88003925642784 704.8470736200144 372.88003925642784 C 707.6084973691684 372.88003925642784 709.8470736200144 375.1186155072739 709.8470736200144 377.88003925642784 Z" stroke-opacity="1" stroke-linecap="round" stroke-linejoin="round" stroke-miterlimit="10"/><text fill="rgb(0,0,0)" stroke="none" font-family="geogebra-sans-serif, sans-serif" font-size="16px" font-style="normal" font-weight="normal" text-decoration="normal" x="709" y="368" text-anchor="start" dominant-baseline="alphabetic" fill-opacity="1">G</text></g></g></svg>